<svg width="38" height="39" viewBox="0 0 38 39" fill="none" xmlns="http://www.w3.org/2000/svg">
<path d="M18.997 0.925262C8.56605 0.925262 0.11377 9.37747 0.11377 19.8086C0.11377 30.2396 8.56605 38.6917 18.997 38.6917C29.428 38.6917 37.88 30.2396 37.88 19.8086C37.88 9.37747 29.428 0.925262 18.997 0.925262ZM18.8799 26.177H16.05L11.5251 19.975C10.625 18.7605 9.78673 17.3117 9.78673 17.3117V26.177H6.85209V12.5956H9.66332L14.3363 19.0503C15.0885 20.0798 15.9516 21.5471 15.9516 21.5471V12.5956H18.886V26.177H18.8799ZM31.8322 26.177H21.0376V12.5956H23.972V23.6616H31.8322V26.177Z" fill="#051C2C"/>
</svg>